<?xml version="1.0" encoding="UTF-8"?>
<svg width="66px" height="16px" viewBox="0 0 66 16" version="1.1" xmlns="http://www.w3.org/2000/svg">
  <defs>
    <linearGradient x1="50%" y1="0%" x2="50%" y2="100%" id="blueGradient">
      <stop stop-color="#2EA1F8" offset="0%"></stop>
      <stop stop-color="#1990EA" offset="100%"></stop>
    </linearGradient>
  </defs>
  <g stroke="none" stroke-width="0" fill="none" fill-rule="evenodd">
    <path d="M64.5436911,14.3031884 C64.5436911,14.1708116 64.4587209,14.0965734 64.306669,14.0965734 L64.1304677,14.0965734 L64.1304677,14.5026478 L64.306669,14.5026478 C64.4587209,14.5026478 64.5436911,14.4284096 64.5436911,14.3031884 L64.5436911,14.3031884 Z M64.5061254,14.7030018 L64.8111236,15.2342975 L64.5168584,15.2342975 L64.2324319,14.7262571 L64.1304677,14.7262571 L64.1304677,15.2342975 L63.8728738,15.2342975 L63.8728738,13.8729641 L64.3442348,13.8729641 C64.6080896,13.8729641 64.8048627,14.059007 64.8048627,14.2996106 C64.8048627,14.4892313 64.6823267,14.6448634 64.5061254,14.7030018 L64.5061254,14.7030018 Z M65.2547575,14.5634696 C65.2547575,13.9946075 64.8281177,13.5616999 64.2860973,13.5616999 C63.7449713,13.5616999 63.3183315,13.9946075 63.3183315,14.5634696 C63.3183315,15.1323316 63.7449713,15.5697114 64.2860973,15.5697114 C64.8281177,15.5697114 65.2547575,15.1323316 65.2547575,14.5634696 L65.2547575,14.5634696 Z M65.5293454,14.5634696 C65.5293454,15.2512918 64.9739086,15.8165761 64.2860973,15.8165761 C63.602758,15.8165761 63.0535823,15.2512918 63.0535823,14.5634696 C63.0535823,13.8765418 63.602758,13.3139408 64.2860973,13.3139408 C64.9739086,13.3139408 65.5293454,13.8765418 65.5293454,14.5634696 L65.5293454,14.5634696 Z M6.75680399,6.46702409 C4.06816818,5.77741302 3.40182297,5.44468238 3.40182297,4.42234067 L3.40182297,4.37851324 C3.40182297,3.62360825 4.09052875,3.02254646 5.40085858,3.02254646 C6.71118841,3.02254646 8.06534497,3.59945845 9.44096769,4.5529285 L9.44543981,4.54666744 L10.699421,1.59681357 C9.22272846,0.573577417 7.4696592,0.00113761231 5.44557974,0.00113761231 C2.26948334,0.00113761231 0.00301522247,1.86782804 0.00301522247,4.68798851 L0.00301522247,4.73271037 C0.00301522247,7.82030757 2.02441141,8.68701721 5.15668108,9.4875385 C7.75587458,10.1538942 8.28895075,10.5984295 8.28895075,11.4642447 L8.28895075,11.5080721 C8.28895075,12.4186092 7.44461535,12.9749491 6.04573763,12.9749491 C4.26941337,12.9749491 2.80345392,12.2424051 1.40547063,11.0885811 L1.3732714,11.1529806 L0.121973494,14.0938901 C1.85625987,15.3604131 3.92416606,15.9945691 5.9786559,15.9945691 C9.33363692,15.9945691 11.6877585,14.2629387 11.6877585,11.1762359 L11.6877585,11.1306196 C11.6877585,8.42047493 9.91053981,7.28811744 6.75680399,6.46702409 L6.75680399,6.46702409 Z M65.4864131,0.223852474 L52.6022484,0.223852474 L52.6022484,3.35974928 L57.334641,3.35974928 L57.334641,15.7736431 L60.7540205,15.7736431 L60.7540205,3.35974928 L65.4864131,3.35974928 L65.4864131,0.223852474 Z M39.4068245,15.7736431 L42.8270984,15.7736431 L42.8270984,9.75318635 L50.246338,9.75318635 L50.246338,6.64322822 L42.8270984,6.64322822 L42.8270984,3.35974928 L51.246303,3.35974928 L51.246303,0.223852474 L39.4068245,0.223852474 L39.4068245,15.7736431 Z M23.1453183,0.223852474 L26.5655922,0.223852474 L26.5655922,15.7736431 L23.1453183,15.7736431 L23.1453183,9.53136592 L16.8360578,9.53136592 L16.8360578,15.7736431 L13.4148895,15.7736431 L13.4148895,0.223852474 L16.8360578,0.223852474 L16.8360578,6.37668594 L23.1453183,6.37668594 L23.1453183,0.223852474 Z" fill="#354052" />
    <polygon fill="url(#blueGradient)" points="31.4087144 15.773822 38.024762 0.224031361 34.5633446 0.224031361 27.9464026 15.773822" />
  </g>
</svg>
